<svg width="23" height="21" viewBox="0 0 23 21" fill="none" xmlns="http://www.w3.org/2000/svg">
<path d="M14.2337 12.8937C14.2445 12.5911 14.1263 12.315 13.9282 12.1169L13.9271 12.118C13.7468 11.9376 13.5014 11.8223 13.2254 11.8125L9.93047 11.6971C9.35387 11.6764 8.86896 12.1278 8.84925 12.7054C8.82855 13.282 9.27992 13.7669 9.85751 13.7866L13.1525 13.9019C13.7291 13.9226 14.214 13.4713 14.2337 12.8937Z" fill="#FF87AF"/>
<path fill-rule="evenodd" clip-rule="evenodd" d="M19.1455 4.54208C18.6428 2.86113 18.2929 1.69125 17.5908 0.989184L17.5869 0.985237C17.1384 0.536771 16.547 0.278441 15.6826 0.200574C15.653 0.196631 15.6245 0.195666 15.5949 0.195666L7.85764 0.146384C7.82708 0.145398 7.7975 0.1473 7.76793 0.149273C5.55615 0.324715 5.12644 1.69675 4.27189 4.4319L4.26366 4.45818C4.16539 4.77228 4.05861 5.11357 3.93972 5.48559C3.92888 5.51812 3.91696 5.55361 3.90218 5.59205L3.67945 5.4186C3.22408 5.06377 2.56768 5.1445 2.21186 5.59888C1.85703 6.05425 1.93589 6.71272 2.39224 7.06656L2.85946 7.43117C2.7373 7.5919 2.61346 7.74925 2.49107 7.90473L2.46424 7.93881C2.04928 8.46416 1.6255 9.00234 1.34558 9.61344C1.32804 9.64851 1.30985 9.68489 1.29524 9.72288L1.29413 9.72588C1.2876 9.7436 1.2811 9.76124 1.2755 9.77803C1.17595 10.0254 1.10011 10.2867 1.0597 10.5637C1.05872 10.5686 1.05822 10.5735 1.05773 10.5784C1.05724 10.5834 1.05674 10.5883 1.05576 10.5932C1.02027 10.9047 0.935512 13.1677 1.03506 14.7713L1.03795 14.8275C1.02612 14.8906 1.02024 14.9576 1.02024 15.0246L1.02717 17.8663C1.04294 19.1969 2.09074 20.2643 3.41051 20.2948L4.94807 20.3343C5.60747 20.3511 6.22931 20.1095 6.70144 19.6551C7.16962 19.2047 7.43379 18.5996 7.44365 17.949L7.46338 17.2611C10.4992 17.3064 12.8144 17.3133 15.9074 17.3035L15.9143 17.8781C15.9182 18.5306 16.1785 19.1397 16.6486 19.6C17.1178 20.0573 17.7348 20.3037 18.3804 20.2909L19.915 20.2702C21.2505 20.2574 22.3071 19.2008 22.3219 17.8712L22.3701 15.0433C22.3731 14.8945 22.3436 14.7506 22.2894 14.6214C22.2911 14.1324 22.2957 13.5992 22.3001 13.0924C22.3008 13.0129 22.3015 12.9341 22.3022 12.8562C22.317 11.1718 22.316 10.8712 22.2963 10.6997C22.1593 9.65193 21.5413 8.8249 20.943 8.02554C20.8099 7.84911 20.6759 7.66978 20.5448 7.48546L21.0267 7.04491C21.4535 6.65558 21.4831 5.99525 21.0938 5.56847C20.7065 5.14168 20.0442 5.11205 19.6174 5.50138L19.4754 5.63142C19.4714 5.62078 19.4679 5.60966 19.4645 5.59902C19.4628 5.59389 19.4612 5.58887 19.4596 5.58406C19.361 5.26073 19.2705 4.95911 19.1864 4.67843C19.1738 4.63653 19.1614 4.59511 19.1491 4.55414L19.1455 4.54208ZM17.4711 6.2293C17.4743 6.23893 17.4775 6.24856 17.4804 6.25842L17.4784 6.25832L5.91793 6.18247C5.92483 6.16177 5.93069 6.14404 5.9366 6.12433C6.05981 5.74092 6.17024 5.38793 6.27176 5.06169C7.11645 2.36202 7.22194 2.29806 7.89316 2.24385L15.5407 2.29218C16.2238 2.35427 16.3292 2.41829 17.1453 5.15246C17.1798 5.26668 17.2153 5.38456 17.2518 5.50628C17.3175 5.72485 17.387 5.95581 17.4617 6.20018C17.4646 6.21004 17.4678 6.21967 17.4711 6.2293ZM19.348 9.38426C19.4538 9.5256 19.5563 9.66257 19.6498 9.79575L18.9382 9.88247C18.3646 9.95344 17.9575 10.4749 18.0285 11.0486C18.0995 11.6222 18.6208 12.0293 19.1944 11.9583L20.2206 11.8311C20.2186 12.1465 20.2157 12.5024 20.2127 12.8405L20.2111 13.0119C20.2056 13.6164 20.1997 14.261 20.1988 14.8235C20.1988 14.8432 20.1978 14.86 20.1968 14.8729C20.0056 14.9517 19.4971 14.9852 19.1827 15.0059L19.1457 15.0083C19.052 15.0144 18.9561 15.0207 18.8524 15.0285C18.6021 15.0502 18.3546 15.0788 18.1151 15.1074C18.0903 15.1103 18.0655 15.1131 18.0408 15.1159C17.7823 15.1455 17.5318 15.1742 17.2853 15.1922C17.173 15.1528 17.0527 15.133 16.9276 15.134C16.7915 15.136 16.6624 15.1627 16.5441 15.212C12.6942 15.2258 10.1236 15.2198 6.22536 15.1518C5.80875 15.1413 5.38098 15.0879 4.92937 15.0315L4.88984 15.0266C4.60105 14.9901 4.30146 14.9526 4.00479 14.926L4.00233 14.9258C3.78126 14.9049 3.27985 14.8577 3.14139 14.7664C3.13745 14.7506 3.12954 14.7151 3.1256 14.652C3.06252 13.627 3.08027 12.3536 3.10491 11.566L3.87763 11.8716C4.41481 12.0854 5.02201 11.8213 5.23491 11.2851C5.44879 10.7479 5.18453 10.1408 4.64834 9.9279L3.82633 9.60256C3.91701 9.48429 4.01268 9.36311 4.11124 9.23892C4.34484 8.94421 4.59913 8.62093 4.84653 8.26511L18.606 8.35579C18.8308 8.69288 19.0593 8.99842 19.2703 9.28031C19.2963 9.31522 19.3222 9.34987 19.348 9.38426ZM18.1113 18.1057L18.1083 18.1028L18.1063 18.1048C18.0678 18.0663 18.0068 17.9875 18.0058 17.8643L17.9979 17.2275C18.1181 17.2137 18.2385 17.1999 18.3567 17.1861C18.3826 17.1832 18.4084 17.1803 18.4339 17.1774C18.6407 17.154 18.8359 17.1319 19.021 17.1152C19.1195 17.1073 19.2192 17.1004 19.3177 17.0945C19.6272 17.0748 19.9406 17.0531 20.2472 17.0048L20.2334 17.8465C20.2304 18.0328 20.0844 18.1807 19.8932 18.1826L18.3488 18.2033C18.2306 18.2053 18.1487 18.1432 18.1113 18.1057ZM3.46461 18.2082C3.37393 18.2063 3.29117 18.1669 3.22908 18.1048C3.16402 18.0397 3.12158 17.95 3.1206 17.8544L3.11867 16.9181C3.3764 16.9669 3.61364 16.9896 3.7969 17.0071L3.81257 17.0086C4.0777 17.0333 4.34477 17.0659 4.62765 17.1024C4.64725 17.1048 4.66688 17.1073 4.68653 17.1097C4.91281 17.1379 5.14185 17.1665 5.37583 17.1901L5.3561 17.8998C5.35513 17.9046 5.35513 17.9103 5.35513 17.9161C5.35316 18.0324 5.29794 18.1077 5.25358 18.152C5.21515 18.1885 5.13134 18.2506 5.00419 18.2476L3.46461 18.2082Z" fill="#FF87AF"/>
</svg>
