<svg width="23" height="23" viewBox="0 0 23 23" fill="none" xmlns="http://www.w3.org/2000/svg">
<path fill-rule="evenodd" clip-rule="evenodd" d="M6.94824 18.9269V20.0117C6.94824 20.6936 6.5168 21.2629 5.92543 21.5257L5.87289 21.5493C5.66464 21.6436 5.31505 21.8019 4.89686 21.8019H3.24963C2.83144 21.8019 2.48185 21.6436 2.2736 21.5493L2.22105 21.5257C1.62968 21.2629 1.19824 20.6936 1.19824 20.0117V17.2498C1.19824 17.1929 1.20487 17.1374 1.21741 17.0843C1.20475 16.9986 1.19824 16.9115 1.19824 16.8235V13.6824C1.19824 12.7254 1.68973 11.8901 2.20722 11.236C2.62065 10.7134 3.11823 10.227 3.51971 9.83453C3.53974 9.81494 3.55958 9.79555 3.57911 9.77645C3.55652 9.76787 3.53415 9.75807 3.51207 9.74703L2.55373 9.26786C2.19869 9.09034 2.05477 8.65861 2.2323 8.30356C2.40982 7.94851 2.84156 7.8046 3.1966 7.98213L4.09799 8.43282L4.68614 6.66835C4.88621 6.06808 5.05528 5.5608 5.24085 5.16191C5.4381 4.73791 5.68256 4.37001 6.06961 4.09105C6.45665 3.81208 6.88298 3.6965 7.3476 3.64345C7.41337 3.63594 7.48135 3.62956 7.55154 3.62415C7.61855 3.29788 7.68094 3.01575 7.74705 2.77779C7.84723 2.41723 7.97736 2.07207 8.2122 1.78864C8.47345 1.47334 8.79271 1.31894 9.14341 1.2519C9.428 1.1975 9.7617 1.19763 10.0839 1.19777H12.9172C13.2394 1.19763 13.5731 1.1975 13.8577 1.2519C14.2084 1.31894 14.5276 1.47334 14.7889 1.78864C15.0237 2.07207 15.1538 2.41723 15.254 2.77779C15.3201 3.01577 15.3825 3.29794 15.4495 3.62424C15.5193 3.62964 15.5869 3.63599 15.6523 3.64345C16.1169 3.6965 16.5432 3.81208 16.9303 4.09104C17.3173 4.37001 17.5618 4.73791 17.759 5.16191C17.9446 5.56078 18.1137 6.06802 18.3137 6.66825L18.902 8.43315L19.8041 7.98213C20.1591 7.8046 20.5908 7.94851 20.7684 8.30356C20.9459 8.65861 20.802 9.09034 20.4469 9.26786L19.4886 9.74703C19.4665 9.75807 19.4441 9.76787 19.4215 9.77645C19.441 9.79551 19.4608 9.81482 19.4808 9.83436C19.8823 10.2268 20.38 10.7134 20.7934 11.236C21.3109 11.8901 21.8024 12.7254 21.8024 13.6824V16.8235C21.8024 16.9115 21.7959 16.9986 21.7832 17.0843C21.7958 17.1374 21.8024 17.1929 21.8024 17.2498V20.0117C21.8024 20.6936 21.371 21.2629 20.7796 21.5257L20.7271 21.5493C20.5188 21.6436 20.1692 21.8019 19.751 21.8019H18.1038C17.6856 21.8019 17.336 21.6436 17.1278 21.5493L17.0752 21.5257C16.4838 21.2629 16.0524 20.6936 16.0524 20.0117V18.9269H6.94824ZM2.63574 18.5427C2.6485 18.5446 2.66132 18.5464 2.6742 18.548L5.51074 18.9026V20.0117C5.51074 20.0558 5.48074 20.1502 5.34161 20.2121C5.06629 20.3344 4.9878 20.3644 4.89686 20.3644H3.24963C3.15869 20.3644 3.08019 20.3344 2.80488 20.2121C2.66575 20.1502 2.63574 20.0558 2.63574 20.0117V18.5427ZM5.79508 17.4894L2.8525 17.1216C2.76249 17.1103 2.63574 17.0116 2.63574 16.8235V13.6824C2.63574 13.5889 2.64561 13.4936 2.66499 13.3963L3.99155 14.0595C4.3466 14.2371 4.77833 14.0931 4.95585 13.7381C5.13338 13.383 4.98946 12.9513 4.63442 12.7738L3.33683 12.125C3.68673 11.6832 4.09498 11.2836 4.4893 10.8976L4.60823 10.7811H18.3924L18.5113 10.8976C18.9065 11.2844 19.3157 11.6849 19.666 12.1278C19.7344 12.2143 19.7982 12.2995 19.857 12.3835L18.5133 12.7194C18.1282 12.8157 17.8941 13.2059 17.9904 13.591C18.0866 13.9761 18.4769 14.2102 18.862 14.114L20.3649 13.7382V16.8235C20.3649 17.0116 20.2382 17.1103 20.1481 17.1216L17.2056 17.4894H16.0115C16.0083 17.4803 16.0048 17.4712 16.0012 17.4621L15.7524 16.8402C15.5888 16.431 15.445 16.0715 15.2931 15.7866C15.1288 15.4784 14.9252 15.1978 14.6111 14.9852C14.2971 14.7725 13.9609 14.6877 13.6137 14.6496C13.2928 14.6144 12.9056 14.6144 12.4649 14.6144H10.5361C10.0954 14.6144 9.70821 14.6144 9.38733 14.6496C9.04012 14.6877 8.70397 14.7725 8.3899 14.9852C8.07582 15.1978 7.87227 15.4784 7.70792 15.7866C7.55603 16.0715 7.41223 16.431 7.2486 16.8402L6.99984 17.4621C6.99621 17.4712 6.99277 17.4803 6.98953 17.4894H5.79508ZM8.53714 17.4894L8.56996 17.4074C8.75089 16.955 8.86602 16.6699 8.97635 16.463C9.07831 16.2718 9.14482 16.21 9.1958 16.1755C9.24678 16.141 9.32884 16.1022 9.54425 16.0785C9.77732 16.0529 10.0848 16.0519 10.572 16.0519H12.429C12.9162 16.0519 13.2237 16.0529 13.4568 16.0785C13.6722 16.1022 13.7543 16.141 13.8052 16.1755C13.8562 16.21 13.9227 16.2718 14.0247 16.463C14.135 16.6699 14.2501 16.955 14.4311 17.4074L14.4639 17.4894H8.53714ZM17.4899 18.9026L20.3264 18.548C20.3393 18.5464 20.3521 18.5446 20.3649 18.5427V20.0117C20.3649 20.0558 20.3349 20.1502 20.1958 20.2121C19.9205 20.3344 19.842 20.3644 19.751 20.3644H18.1038C18.0129 20.3644 17.9344 20.3344 17.659 20.2121C17.5199 20.1502 17.4899 20.0558 17.4899 20.0117V18.9026ZM17.6902 9.34359H5.30965L6.03726 7.16076C6.25334 6.51253 6.39734 6.08397 6.54421 5.76824C6.68329 5.46928 6.79522 5.34002 6.91013 5.25721C7.02503 5.17439 7.18305 5.10908 7.51065 5.07167C7.85662 5.03218 8.30873 5.03109 8.99202 5.03109H14.0079C14.6912 5.03109 15.1433 5.03218 15.4892 5.07167C15.8168 5.10908 15.9748 5.17439 16.0898 5.25721C16.2047 5.34002 16.3166 5.46928 16.4557 5.76824C16.6025 6.08397 16.7465 6.51253 16.9626 7.16076L17.6902 9.34359ZM9.02732 3.59359H13.9737C13.9374 3.42809 13.9034 3.2864 13.869 3.16259C13.7856 2.86232 13.7211 2.75306 13.682 2.7058C13.6729 2.69481 13.6672 2.68973 13.665 2.68794C13.6635 2.68661 13.6625 2.68592 13.6614 2.68531C13.6612 2.68517 13.6617 2.68545 13.6614 2.68531C13.6595 2.68422 13.6409 2.674 13.5877 2.66383C13.4539 2.63825 13.2607 2.63528 12.8696 2.63528H10.1315C9.74034 2.63528 9.54713 2.63825 9.41333 2.66383C9.36014 2.674 9.34231 2.68381 9.34033 2.68491C9.33979 2.68521 9.33928 2.6855 9.33874 2.68586C9.33798 2.68636 9.33714 2.68699 9.33602 2.68794C9.33389 2.68973 9.3282 2.69481 9.3191 2.7058C9.27993 2.75306 9.21552 2.86232 9.13209 3.16259C9.0977 3.28639 9.0637 3.42809 9.02732 3.59359Z" fill="#FF87AF"/>
</svg>
