<svg width="22" height="22" viewBox="0 0 22 22" fill="none" xmlns="http://www.w3.org/2000/svg">
<path fill-rule="evenodd" clip-rule="evenodd" d="M7.30035 0.335103C7.9364 0.425737 8.50638 0.625666 8.95973 1.10615C9.40726 1.58047 9.58801 2.16639 9.67082 2.81914C9.75004 3.44372 9.75002 4.23274 9.75 5.18939L9.75001 7.54674C9.75007 7.9407 9.75014 8.31237 9.7098 8.60155C9.6691 8.89334 9.55678 9.35256 9.10596 9.60827C8.63692 9.87433 8.18013 9.71027 7.91251 9.57631C7.65662 9.44822 7.3599 9.23846 7.05396 9.02219L6.90824 8.91922C6.37012 8.539 6.22655 8.44737 6.07819 8.39976C5.93214 8.35289 5.76931 8.34468 5.12223 8.34468H4.0816C3.58857 8.34469 3.17451 8.34469 2.835 8.31745C2.47977 8.28894 2.14356 8.22714 1.82247 8.06844C1.23202 7.77663 0.767598 7.27902 0.500892 6.67283C0.357887 6.3478 0.301594 6.00726 0.275331 5.63969C0.249987 5.28498 0.249993 4.85058 0.25 4.32436V4.27032C0.249993 3.7441 0.249987 3.30969 0.275331 2.95498C0.301594 2.58741 0.357887 2.24688 0.500892 1.92184C0.767598 1.31566 1.23202 0.818041 1.82247 0.52623C2.14356 0.367537 2.47977 0.305736 2.835 0.277226C3.17452 0.249976 3.58856 0.249985 4.0816 0.249996L5.05449 0.249994C5.95079 0.249961 6.70264 0.249933 7.30035 0.335103ZM7.08874 1.8201C6.60928 1.75178 5.96524 1.75 5 1.75H4.11111C3.58084 1.75 3.22737 1.75056 2.95501 1.77242C2.69161 1.79356 2.56781 1.83106 2.48706 1.87097C2.22521 2.00038 2.00461 2.22879 1.87388 2.52592C1.8295 2.62679 1.7921 2.7738 1.77152 3.06188C1.75045 3.35678 1.75 3.73736 1.75 4.29734C1.75 4.85731 1.75045 5.23789 1.77152 5.53279C1.7921 5.82087 1.8295 5.96788 1.87388 6.06875C2.00461 6.36588 2.22521 6.59429 2.48706 6.72371C2.56781 6.76362 2.69161 6.80112 2.95501 6.82225C3.22737 6.84411 3.58084 6.84468 4.11111 6.84468L5.21256 6.84463C5.72544 6.84421 6.13878 6.84387 6.53652 6.9715C6.93206 7.09843 7.27231 7.33924 7.6987 7.64102L7.87809 7.76783C8.02044 7.86841 8.14066 7.9533 8.24674 8.02557C8.24961 7.88565 8.25 7.71354 8.25 7.49851V5.23943C8.25 4.22015 8.24858 3.52693 8.18274 3.00791C8.1191 2.5062 8.00696 2.28208 7.8687 2.13555C7.73626 1.99518 7.54195 1.88468 7.08874 1.8201Z" fill="#FF87AF"/>
<path fill-rule="evenodd" clip-rule="evenodd" d="M11.2637 1.99999C11.2637 1.58578 11.5994 1.24999 12.0137 1.24999C16.26 1.24999 19.8706 3.9642 21.2087 7.75006C21.5109 8.60516 21.6972 9.51459 21.7489 10.459C21.7715 10.8726 21.4546 11.2262 21.041 11.2489C20.6274 11.2715 20.2738 10.9546 20.2511 10.541C20.2173 9.92302 20.1155 9.32366 19.9533 8.74999H15.6718C15.7186 9.31225 15.7481 9.8928 15.759 10.4863C15.7665 10.9005 15.4369 11.2423 15.0228 11.2499C14.6086 11.2574 14.2668 10.9278 14.2592 10.5137C14.2481 9.90495 14.2163 9.31503 14.1663 8.74999H12.0137C11.5994 8.74999 11.2637 8.41421 11.2637 7.99999C11.2637 7.58578 11.5994 7.24999 12.0137 7.24999H13.9826C13.8295 6.2868 13.6205 5.43071 13.3716 4.72161C13.1181 3.99928 12.8374 3.47038 12.5644 3.13675C12.2867 2.79727 12.0967 2.74999 12.0137 2.74999C11.5994 2.74999 11.2637 2.41421 11.2637 1.99999ZM14.2948 3.06943C14.4772 3.41982 14.641 3.80882 14.787 4.22488C15.09 5.08815 15.3325 6.11462 15.5001 7.24999H19.3643C18.3356 5.23767 16.5051 3.70402 14.2948 3.06943Z" fill="#FF87AF"/>
<path fill-rule="evenodd" clip-rule="evenodd" d="M1 10.25C1.41421 10.25 1.75 10.5858 1.75 11C1.75 11.7809 1.85829 12.5355 2.06035 13.25H6.34184C6.30863 12.851 6.28412 12.4429 6.26882 12.0276C6.25357 11.6137 6.57676 11.2658 6.99069 11.2505C7.40463 11.2353 7.75255 11.5585 7.7678 11.9724C7.78393 12.4102 7.81078 12.8368 7.84735 13.25H10C10.4142 13.25 10.75 13.5858 10.75 14C10.75 14.4142 10.4142 14.75 10 14.75H8.03108C8.19518 15.7828 8.42353 16.6915 8.69569 17.4273C8.94508 18.1016 9.21658 18.5905 9.47723 18.8968C9.74085 19.2067 9.91983 19.25 10 19.25C10.4142 19.25 10.75 19.5858 10.75 20C10.75 20.4142 10.4142 20.75 10 20.75C5.75362 20.75 2.1431 18.0358 0.804987 14.2499C0.445355 13.2325 0.25 12.1382 0.25 11C0.25 10.5858 0.585787 10.25 1 10.25ZM7.71887 18.9306C7.56158 18.6284 7.41846 18.2981 7.28884 17.9477C6.95639 17.0488 6.69231 15.9607 6.5136 14.75H2.64934C3.67802 16.7623 5.5086 18.296 7.71887 18.9306Z" fill="#FF87AF"/>
<path fill-rule="evenodd" clip-rule="evenodd" d="M16.9455 12.25C16.0492 12.25 15.2974 12.2499 14.6997 12.3351C14.0636 12.4257 13.4936 12.6257 13.0403 13.1061C12.5928 13.5805 12.412 14.1664 12.3292 14.8191C12.25 15.4437 12.25 16.2328 12.25 17.1894L12.25 19.5467C12.2499 19.9407 12.2499 20.3124 12.2902 20.6015C12.3309 20.8933 12.4432 21.3526 12.894 21.6083C13.3631 21.8743 13.8199 21.7103 14.0875 21.5763C14.3434 21.4482 14.6401 21.2385 14.946 21.0222L15.0918 20.9192C15.6299 20.539 15.7735 20.4474 15.9218 20.3998C16.0679 20.3529 16.2307 20.3447 16.8778 20.3447H17.9184C18.4115 20.3447 18.8255 20.3447 19.165 20.3174C19.5202 20.2889 19.8564 20.2271 20.1775 20.0684C20.768 19.7766 21.2324 19.279 21.4991 18.6728C21.6421 18.3478 21.6984 18.0073 21.7247 17.6397C21.75 17.285 21.75 16.8506 21.75 16.3244V16.2703C21.75 15.7441 21.75 15.3097 21.7247 14.955C21.6984 14.5874 21.6421 14.2469 21.4991 13.9218C21.2324 13.3157 20.768 12.818 20.1775 12.5262C19.8564 12.3675 19.5202 12.3057 19.165 12.2772C18.8255 12.25 18.4115 12.25 17.9184 12.25L16.9455 12.25ZM14.1313 14.1355C14.2638 13.9952 14.4581 13.8847 14.9113 13.8201C15.3907 13.7518 16.0348 13.75 17 13.75H17.8889C18.4192 13.75 18.7726 13.7506 19.045 13.7724C19.3084 13.7936 19.4322 13.8311 19.513 13.871C19.7748 14.0004 19.9954 14.2288 20.1261 14.5259C20.1705 14.6268 20.2079 14.7738 20.2285 15.0619C20.2496 15.3568 20.25 15.7374 20.25 16.2973C20.25 16.8573 20.2496 17.2379 20.2285 17.5328C20.2079 17.8209 20.1705 17.9679 20.1261 18.0688C19.9954 18.3659 19.7748 18.5943 19.513 18.7237C19.4322 18.7636 19.3084 18.8011 19.045 18.8223C18.7726 18.8441 18.4192 18.8447 17.8889 18.8447L16.7874 18.8446C16.2746 18.8442 15.8612 18.8439 15.4635 18.9715C15.068 19.0984 14.7277 19.3392 14.3013 19.641L14.1219 19.7678C13.9796 19.8684 13.8594 19.9533 13.7533 20.0256C13.7504 19.8856 13.75 19.7135 13.75 19.4985V17.2394C13.75 16.2202 13.7514 15.5269 13.8173 15.0079C13.8809 14.5062 13.9931 14.2821 14.1313 14.1355Z" fill="#FF87AF"/>
</svg>
