<svg width="18" height="18" viewBox="0 0 18 18" fill="none" xmlns="http://www.w3.org/2000/svg">
<path fill-rule="evenodd" clip-rule="evenodd" d="M9.00063 0.041666C5.1942 0.041666 2.10493 3.11773 2.1049 6.91661C2.10482 7.80023 2.04555 8.46716 1.6392 9.06657C1.5827 9.14871 1.50773 9.2516 1.42581 9.36401C1.28354 9.55926 1.1203 9.78327 0.996479 9.97728C0.777947 10.3197 0.564444 10.7326 0.491047 11.2138C0.251586 12.7835 1.35546 13.7999 2.45481 14.2553C3.27324 14.5943 4.15757 14.8617 5.07996 15.0574C5.55835 16.7412 7.14134 17.9583 8.99983 17.9583C10.8582 17.9583 12.4411 16.7413 12.9196 15.0578C13.8426 14.862 14.7275 14.5945 15.5465 14.2553C16.6458 13.7999 17.7497 12.7835 17.5102 11.2138C17.4368 10.7326 17.2233 10.3197 17.0048 9.97728C16.881 9.78327 16.7177 9.55927 16.5755 9.36402C16.4936 9.25164 16.4186 9.14876 16.3621 9.06664C15.9557 8.4672 15.8964 7.80034 15.8964 6.91667C15.8964 3.11776 12.8071 0.041666 9.00063 0.041666ZM3.3549 6.91667C3.3549 3.81201 5.88063 1.29167 9.00063 1.29167C12.1206 1.29167 14.6464 3.81207 14.6464 6.91672C14.6464 7.81874 14.6909 8.83056 15.3289 9.77017L15.3309 9.7731C15.4358 9.9257 15.5278 10.0508 15.6146 10.1687C15.7302 10.3258 15.8365 10.4701 15.9511 10.6498C16.1288 10.9282 16.239 11.1695 16.2745 11.4023C16.3895 12.1559 15.9088 12.7522 15.0681 13.1005C11.5022 14.5776 6.49901 14.5776 2.93321 13.1005C2.09247 12.7522 1.61179 12.1559 1.72675 11.4023C1.76226 11.1695 1.87248 10.9282 2.05018 10.6498C2.1648 10.4701 2.27102 10.3258 2.38662 10.1688C2.47328 10.051 2.56568 9.92546 2.67039 9.7731L2.67238 9.77017C3.31034 8.83056 3.35483 7.81869 3.3549 6.91667ZM11.4697 15.3028C9.84595 15.5103 8.15353 15.5102 6.5298 15.3026C7.00605 16.1349 7.92775 16.7083 8.99983 16.7083C10.0718 16.7083 10.9934 16.135 11.4697 15.3028Z" fill="#FF87AF"/>
</svg>
