<svg width="22" height="17" viewBox="0 0 22 17" fill="none" xmlns="http://www.w3.org/2000/svg">
<path fill-rule="evenodd" clip-rule="evenodd" d="M1.02281 0.75C0.608597 0.75 0.27281 1.08579 0.27281 1.5C0.27281 1.91421 0.608597 2.25 1.02281 2.25H1.60925C1.08937 3.29856 0.444549 4.94031 0.262531 6.40767L0.256827 6.45366V6.5C0.256827 6.68295 0.255698 6.95078 0.254299 7.28267C0.249809 8.34752 0.242539 10.0718 0.260863 11.7681L0.261021 11.7828L0.261753 11.7974C0.270889 11.9803 0.287124 12.2551 0.39136 12.5368C0.504459 12.8425 0.702761 13.1138 1.00726 13.3423C1.48453 13.7006 2.22608 13.9526 3.33419 14.1503C3.62635 15.3553 4.7121 16.25 6.00684 16.25C7.26561 16.25 8.32686 15.4043 8.65332 14.25H13.3603C13.6868 15.4043 14.748 16.25 16.0068 16.25C17.2677 16.25 18.3303 15.4015 18.6549 14.2443C18.6718 14.2446 18.6889 14.2449 18.7063 14.2453L18.7666 14.2464C19.0414 14.2515 19.3594 14.2575 19.6525 14.2497C19.9979 14.2406 20.4555 14.2091 20.8523 14.0057C21.3136 13.7693 21.6061 13.3513 21.6905 12.7912C21.7189 12.6463 21.7288 12.457 21.7351 12.3068C21.7435 12.1046 21.7481 11.8509 21.7496 11.5691C21.7526 11.0042 21.7435 10.3058 21.7253 9.63957L21.725 9.6289L21.7244 9.61824C21.6809 8.83825 21.4466 8.22011 21.0493 7.73375C20.6625 7.26035 20.1671 6.96872 19.7033 6.7566C19.431 6.63209 19.103 6.50897 18.8093 6.39875C18.6469 6.33779 18.495 6.28077 18.3688 6.22965C17.9587 6.06344 17.6404 5.89799 17.3997 5.6819C17.0792 5.39415 16.7701 4.95255 16.4136 4.38271C16.3358 4.25841 16.2555 4.12751 16.1728 3.99265C15.8981 3.54478 15.5963 3.05276 15.2711 2.61363C14.411 1.4523 13.4746 0.909012 12.3305 0.801486C12.0671 0.775218 11.7942 0.762587 11.5919 0.756355C11.4892 0.753195 11.4023 0.75161 11.3405 0.750813L11.2676 0.750107L11.2474 0.750015L11.2417 0.750002L1.02281 0.75ZM17.2505 13.3733C17.2402 13.4337 17.2372 13.4964 17.2423 13.5603C17.2441 13.5826 17.2469 13.6046 17.2505 13.6262C17.1873 14.2573 16.6546 14.75 16.0068 14.75C15.3164 14.75 14.7568 14.1904 14.7568 13.5C14.7568 12.8096 15.3164 12.25 16.0068 12.25C16.6544 12.25 17.187 12.7424 17.2505 13.3733ZM18.6516 12.744C18.6793 12.7445 18.7068 12.745 18.7341 12.7455L18.7864 12.7465C19.0695 12.7518 19.3552 12.7571 19.6128 12.7503C19.767 12.7462 19.8897 12.7369 19.9891 12.7205C20.089 12.7041 20.1426 12.6839 20.1681 12.6708C20.1751 12.6672 20.1792 12.6646 20.1813 12.6631L20.1826 12.6606C20.1841 12.6576 20.1865 12.6525 20.1893 12.6447C20.1949 12.6291 20.2026 12.6017 20.2085 12.5587L20.214 12.5181L20.224 12.4782C20.2209 12.4905 20.2211 12.4882 20.223 12.4652C20.2256 12.4341 20.2314 12.3653 20.2364 12.2445C20.2437 12.0679 20.2481 11.8341 20.2496 11.5609C20.2525 11.0189 20.2438 10.342 20.2262 9.69166C20.1964 9.18775 20.0554 8.88807 19.8876 8.68274C19.7082 8.46308 19.4474 8.28903 19.0794 8.12071C18.8395 8.01098 18.6198 7.92942 18.3753 7.83863C18.2029 7.77465 18.0182 7.70606 17.8054 7.61982C17.5554 7.51848 17.2895 7.4 17.0286 7.24969C17.0254 7.24978 17.0222 7.24985 17.019 7.2499C17.0149 7.24997 17.0109 7.25 17.0068 7.25H1.75447L1.75425 7.30124C1.74977 8.36483 1.74264 10.0589 1.76061 11.7368C1.7694 11.9035 1.78144 11.9712 1.79815 12.0163C1.80646 12.0388 1.82249 12.0787 1.9077 12.1427C2.08984 12.2794 2.4977 12.4607 3.39542 12.6356C3.75777 11.5403 4.79001 10.75 6.00684 10.75C7.26561 10.75 8.32686 11.5957 8.65332 12.75H13.3603C13.6868 11.5957 14.748 10.75 16.0068 10.75C17.2635 10.75 18.3232 11.5928 18.6516 12.744ZM7.25484 13.4287C7.21789 12.7715 6.67327 12.25 6.00684 12.25C5.33045 12.25 4.77955 12.7872 4.75752 13.4582C4.75901 13.4854 4.75902 13.5129 4.75748 13.5406C4.77893 14.2122 5.33007 14.75 6.00684 14.75C6.67328 14.75 7.21789 14.2285 7.25484 13.5713C7.25262 13.5478 7.25149 13.524 7.25149 13.5C7.25149 13.476 7.25262 13.4522 7.25484 13.4287ZM3.28045 2.31286C3.29312 2.29225 3.30468 2.27128 3.31513 2.25H7.25683V5.75H1.90719C2.23974 4.35828 2.9137 2.90929 3.28045 2.31286ZM8.75683 5.75V2.25L11.2395 2.25L11.243 2.25001L11.2587 2.25008L11.3212 2.25069C11.3756 2.25139 11.4535 2.25281 11.5457 2.25564C11.7324 2.26139 11.9681 2.27272 12.1836 2.29429L12.1885 2.29475C12.8419 2.35578 13.4156 2.62856 14.0657 3.50637C14.3482 3.88775 14.6012 4.30016 14.8685 4.73557C14.9575 4.88069 15.0481 5.02836 15.1419 5.17829C15.2599 5.36682 15.3835 5.5599 15.5141 5.75H8.75683Z" fill="#FF87AF"/>
</svg>
