<svg width="18" height="18" viewBox="0 0 18 18" fill="none" xmlns="http://www.w3.org/2000/svg">
<path fill-rule="evenodd" clip-rule="evenodd" d="M9.01595 5.45832C7.05994 5.45832 5.47428 7.04398 5.47428 8.99999C5.47428 10.956 7.05994 12.5417 9.01595 12.5417C10.972 12.5417 12.5576 10.956 12.5576 8.99999C12.5576 7.04398 10.972 5.45832 9.01595 5.45832ZM6.72428 8.99999C6.72428 7.73434 7.7503 6.70832 9.01595 6.70832C10.2816 6.70832 11.3076 7.73434 11.3076 8.99999C11.3076 10.2656 10.2816 11.2917 9.01595 11.2917C7.7503 11.2917 6.72428 10.2656 6.72428 8.99999Z" fill="#FF87AF"/>
<path fill-rule="evenodd" clip-rule="evenodd" d="M9.54572 0.0481706H8.55786C8.29395 0.0481379 8.04594 0.0481073 7.83808 0.0718848C7.60647 0.0983798 7.3629 0.159655 7.13563 0.323785C6.90845 0.487842 6.77362 0.699742 6.67546 0.911164C6.58729 1.10106 6.50894 1.33666 6.42549 1.58762L6.41622 1.6155L6.14309 2.43122C6.06415 2.6302 5.92605 2.79979 5.7478 2.91708L5.49581 3.06247C5.28489 3.16741 5.0447 3.19731 4.81468 3.14735L3.81441 2.86561L3.78503 2.85727C3.51168 2.77966 3.25607 2.70709 3.03596 2.67215C2.79116 2.63328 2.52337 2.62832 2.24644 2.74095C1.96962 2.85354 1.78125 3.04396 1.63294 3.24253C1.4995 3.42119 1.36676 3.65163 1.2247 3.89823L0.783024 4.66475C0.649941 4.89564 0.525058 5.1123 0.441284 5.30577C0.348003 5.52119 0.279191 5.76439 0.308655 6.04487C0.338124 6.32537 0.455992 6.54896 0.592046 6.74027C0.714213 6.91205 0.881411 7.09794 1.05955 7.296L1.07823 7.31677L1.07933 7.31799L1.92194 8.26003C2.02726 8.40273 2.13736 8.71288 2.13736 9.00637C2.13736 9.30017 2.02728 9.6102 1.92195 9.7529L1.07933 10.6949L1.07823 10.6962L1.05955 10.7169C0.881413 10.915 0.714215 11.1009 0.592049 11.2727C0.455995 11.464 0.338126 11.6876 0.308657 11.9681C0.279191 12.2486 0.348006 12.4918 0.441286 12.7072C0.525061 12.9006 0.649943 13.1173 0.783024 13.3482L1.2247 14.1147C1.36675 14.3613 1.49949 14.5917 1.63293 14.7704C1.78124 14.969 1.96961 15.1594 2.24645 15.272C2.52338 15.3846 2.79118 15.3797 3.03598 15.3408C3.25609 15.3058 3.51171 15.2333 3.78506 15.1556L3.81395 15.1474L4.81464 14.8656C5.04471 14.8156 5.28495 14.8455 5.49591 14.9505L5.74784 15.0959C5.92606 15.2132 6.06413 15.3827 6.14306 15.5817L6.41622 16.3975L6.42549 16.4254C6.50894 16.6763 6.58729 16.9119 6.67546 17.1018C6.77362 17.3133 6.90845 17.5252 7.13562 17.6892C7.3629 17.8534 7.60647 17.9146 7.83808 17.9411C8.04595 17.9649 8.29396 17.9649 8.55788 17.9648H9.5457C9.80962 17.9649 10.0576 17.9649 10.2655 17.9411C10.4971 17.9146 10.7407 17.8534 10.968 17.6892C11.1951 17.5252 11.33 17.3133 11.4281 17.1018C11.5163 16.912 11.5946 16.6764 11.6781 16.4254L11.6874 16.3975L11.9605 15.5817C12.0395 15.3827 12.1775 15.2132 12.3557 15.0959L12.6077 14.9505C12.8186 14.8455 13.0589 14.8156 13.2889 14.8656L14.2896 15.1474L14.3185 15.1556C14.5919 15.2333 14.8475 15.3058 15.0676 15.3408C15.3124 15.3797 15.5802 15.3846 15.8571 15.272C16.134 15.1594 16.3223 14.969 16.4706 14.7704C16.6041 14.5917 16.7368 14.3613 16.8789 14.1147L17.3205 13.3482C17.4536 13.1174 17.5785 12.9006 17.6623 12.7072C17.7556 12.4918 17.8244 12.2486 17.7949 11.9681C17.7655 11.6876 17.6476 11.464 17.5115 11.2727C17.3894 11.1009 17.2222 10.915 17.0441 10.717L17.0253 10.6962L16.1816 9.7529C16.0763 9.6102 15.9662 9.30017 15.9662 9.00637C15.9662 8.71288 16.0763 8.40273 16.1816 8.26003L17.0243 7.31799L17.0254 7.31677L17.044 7.296C17.2222 7.09794 17.3894 6.91205 17.5115 6.74027C17.6476 6.54896 17.7655 6.32537 17.7949 6.04487C17.8244 5.76439 17.7556 5.52119 17.6623 5.30577C17.5785 5.11231 17.4537 4.89566 17.3206 4.66478L16.8789 3.8982C16.7368 3.65161 16.6041 3.42119 16.4706 3.24253C16.3223 3.04396 16.134 2.85354 15.8571 2.74095C15.5802 2.62832 15.3124 2.63328 15.0676 2.67215C14.8475 2.70709 14.5919 2.77967 14.3186 2.85727L14.2897 2.86547L13.2889 3.14735C13.0589 3.19731 12.8187 3.16741 12.6078 3.06247L12.3558 2.91707C12.1775 2.79979 12.0394 2.6302 11.9605 2.43122L11.687 1.61435L11.6781 1.58759C11.5946 1.33664 11.5163 1.10106 11.4281 0.911164C11.33 0.699742 11.1951 0.487842 10.968 0.323785C10.7407 0.159655 10.4971 0.0983798 10.2655 0.0718848C10.0576 0.0481073 9.80963 0.0481379 9.54572 0.0481706ZM7.86677 1.33775L7.86746 1.33716C7.86746 1.33716 7.87164 1.33502 7.8782 1.33284C7.89238 1.32815 7.92234 1.3204 7.98014 1.31379C8.10834 1.29912 8.28356 1.29817 8.5873 1.29817H9.51628C9.82002 1.29817 9.99524 1.29912 10.1234 1.31379C10.1812 1.3204 10.2112 1.32815 10.2254 1.33284C10.2319 1.33502 10.2361 1.33716 10.2361 1.33716L10.2368 1.33775C10.2368 1.33775 10.2396 1.34061 10.2438 1.34623C10.2529 1.35838 10.2698 1.38458 10.2944 1.43756C10.3489 1.55498 10.4053 1.72144 10.5013 2.01009L10.7842 2.85518L10.7891 2.86777C10.9642 3.32433 11.2806 3.71297 11.6923 3.97665L11.7045 3.98446L12.011 4.16128L12.0245 4.16824C12.5047 4.41497 13.0566 4.48381 13.5827 4.36249L13.5973 4.35913L14.6297 4.06832C14.9437 3.97924 15.1263 3.92848 15.2636 3.90668C15.3257 3.89682 15.359 3.89649 15.3748 3.89745C15.382 3.89789 15.3857 3.89869 15.3857 3.89869L15.3867 3.89911C15.3867 3.89911 15.39 3.90117 15.3956 3.90598C15.4077 3.91643 15.4314 3.93999 15.4691 3.99052C15.5525 4.10218 15.6483 4.26628 15.8114 4.54937L16.2227 5.2632C16.3757 5.52875 16.4634 5.68272 16.5152 5.80247C16.5386 5.85652 16.547 5.88686 16.5501 5.9019C16.5515 5.90886 16.5518 5.91304 16.5518 5.91304L16.5518 5.91427L16.5515 5.91546C16.5515 5.91546 16.5504 5.91946 16.5476 5.92595C16.5415 5.93998 16.527 5.96787 16.4929 6.01582C16.4173 6.12209 16.2996 6.25438 16.0948 6.4822L16.0937 6.48342L15.2217 7.45827L15.2099 7.47328C14.8978 7.86828 14.7162 8.47528 14.7162 9.00637C14.7162 9.53769 14.8978 10.1446 15.2098 10.5396L15.2217 10.5547L16.0948 11.5307C16.2996 11.7586 16.4173 11.8909 16.4929 11.9971C16.527 12.0451 16.5415 12.073 16.5476 12.087C16.5504 12.0935 16.5515 12.0975 16.5515 12.0975L16.5518 12.0987L16.5518 12.0999C16.5518 12.0999 16.5515 12.1041 16.5501 12.111C16.547 12.1261 16.5386 12.1564 16.5152 12.2105C16.4634 12.3302 16.3757 12.4842 16.2227 12.7497L15.8114 13.4636C15.6483 13.7466 15.5525 13.9107 15.4691 14.0224C15.4314 14.0729 15.4077 14.0965 15.3956 14.107C15.39 14.1118 15.3867 14.1138 15.3867 14.1138L15.3857 14.1142C15.3857 14.1142 15.382 14.115 15.3748 14.1155C15.359 14.1164 15.3257 14.1161 15.2636 14.1062C15.1263 14.0844 14.9437 14.0337 14.6297 13.9446L13.5973 13.6538L13.5827 13.6504C13.0566 13.5291 12.5046 13.598 12.0243 13.8448L12.0108 13.8517L11.7044 14.0286L11.6922 14.0364C11.2806 14.3001 10.9642 14.6887 10.7891 15.1452L10.7843 15.1578L10.5017 16.0018L10.5013 16.0029C10.4053 16.2916 10.3489 16.458 10.2944 16.5755C10.2698 16.6284 10.2529 16.6546 10.2438 16.6668C10.2396 16.6724 10.2368 16.6753 10.2368 16.6753L10.2354 16.6763C10.2354 16.6763 10.2343 16.6769 10.232 16.6778C10.2303 16.6784 10.2281 16.6793 10.2254 16.6802C10.2112 16.6849 10.1812 16.6926 10.1234 16.6992C9.99524 16.7139 9.82002 16.7148 9.51628 16.7148H8.5873C8.28356 16.7148 8.10834 16.7139 7.98014 16.6992C7.92234 16.6926 7.89238 16.6849 7.87819 16.6802C7.87164 16.678 7.86746 16.6759 7.86746 16.6759L7.86677 16.6753C7.86677 16.6753 7.86395 16.6724 7.85976 16.6668C7.85072 16.6546 7.83382 16.6284 7.80922 16.5755C7.7547 16.458 7.69833 16.2916 7.6023 16.0029L7.31932 15.1578L7.31449 15.1452C7.1394 14.6887 6.82302 14.3001 6.41141 14.0364L6.39922 14.0286L6.0928 13.8517L6.07926 13.8448C5.599 13.598 5.047 13.5291 4.52085 13.6504L4.50626 13.6538L3.47386 13.9446C3.15991 14.0337 2.97726 14.0844 2.83995 14.1062C2.77785 14.1161 2.74462 14.1164 2.72881 14.1155C2.72154 14.115 2.71787 14.1142 2.71787 14.1142L2.71686 14.1138C2.71686 14.1138 2.71358 14.1118 2.708 14.107C2.69588 14.0965 2.67218 14.0729 2.63444 14.0224C2.55104 13.9107 2.45528 13.7466 2.29217 13.4636L1.88086 12.7497C1.72784 12.4842 1.64022 12.3302 1.58836 12.2105C1.56496 12.1564 1.55657 12.1261 1.55349 12.111C1.55206 12.1041 1.55179 12.0999 1.55179 12.0999L1.55182 12.0987L1.55204 12.0975C1.55204 12.0975 1.55317 12.0935 1.556 12.087C1.56212 12.073 1.57661 12.0451 1.61071 11.9971C1.68629 11.8909 1.80396 11.7586 2.00882 11.5307L2.00991 11.5295L2.88189 10.5547L2.89375 10.5396C3.20581 10.1446 3.38736 9.53769 3.38736 9.00637C3.38736 8.47528 3.20574 7.86828 2.89372 7.47328L2.88187 7.45827L2.00991 6.48342L2.00881 6.4822C1.80396 6.25438 1.68629 6.12209 1.61071 6.01582C1.57661 5.96787 1.56212 5.93998 1.556 5.92595C1.55316 5.91946 1.55204 5.91546 1.55204 5.91546L1.55181 5.91427L1.55179 5.91304C1.55179 5.91304 1.55206 5.90886 1.55349 5.9019C1.55657 5.88686 1.56496 5.85652 1.58836 5.80247C1.64021 5.68272 1.72784 5.52875 1.88086 5.2632L2.29218 4.54937C2.4553 4.26628 2.55105 4.10218 2.63444 3.99052C2.67218 3.93999 2.69588 3.91643 2.708 3.90598C2.71357 3.90117 2.71686 3.89911 2.71686 3.89911L2.71787 3.89869C2.71787 3.89869 2.72155 3.89789 2.72881 3.89745C2.74462 3.89649 2.77785 3.89682 2.83995 3.90668C2.97726 3.92848 3.15991 3.97924 3.47385 4.06832L4.50631 4.35913L4.5209 4.36249C5.04695 4.48381 5.59884 4.41497 6.07905 4.16824L6.09259 4.16128L6.39905 3.98446L6.41125 3.97665C6.82295 3.71297 7.1394 3.32433 7.31451 2.86777L7.31934 2.85518L7.6023 2.01009C7.69833 1.72144 7.7547 1.55498 7.80922 1.43756C7.83382 1.38458 7.85072 1.35838 7.85976 1.34623C7.86395 1.34061 7.86677 1.33775 7.86677 1.33775Z" fill="#FF87AF"/>
</svg>
